# xmcd
#
# Track frame offsets:
# 150
# 17726
# 38294
# 62771
# 88723
# 101568
# 121413
# 145993
# 164245
# 192601
#
# Disc length: 2974 seconds
#
#
# Revision: 0
# Processed by: cddbd v1.5.1PL2 Copyright (c) Steve Scherf et al.
# Submitted via: FreeRIP 2.943 
#
DISCID=8a0b9c0a
DTITLE=David Gilmour - On an island
DYEAR=2006
DGENRE=Pop
TTITLE0=Castellorizon
TTITLE1=On An Island
TTITLE2=The Blue
TTITLE3=Take A Breath
TTITLE4=Red Sky At Night
TTITLE5=This Heaven
TTITLE6=Then I Close My Eyes
TTITLE7=Smile
TTITLE8=A Pocketful Of Stones
TTITLE9=Where We Start
EXTD=
EXTT0=
EXTT1=
EXTT2=
EXTT3=
EXTT4=
EXTT5=
EXTT6=
EXTT7=
EXTT8=
EXTT9=
PLAYORDER=
